HIERARCHY
ROOT pelvis
{
  OFFSET 0 100 0
  CHANNELS 6 Xposition Yposition Zposition Zrotation Xrotation Yrotation
  JOINT pelvis_right_femur
  {
    OFFSET -10.78128 -3.44521 -0.5502486
    CHANNELS 3 Zrotation Xrotation Yrotation
    JOINT right_femur_tibia
    {
      OFFSET -0.8047443 -44.0398 -0.1307829
      CHANNELS 3 Zrotation Xrotation Yrotation
      JOINT right_tibia_foot
      {
        OFFSET 3.006224 -47.83518 -5
        CHANNELS 3 Zrotation Xrotation Yrotation
        End Site
        {
          OFFSET 0 -5 15
        }
      }
    }
  }
  JOINT pelvis_left_femur
  {
    OFFSET 10.78128 -3.44521 -0.5502486
    CHANNELS 3 Zrotation Xrotation Yrotation
    JOINT left_femur_tibia
    {
      OFFSET 0.8047443 -44.0398 -0.1307829
      CHANNELS 3 Zrotation Xrotation Yrotation
      JOINT left_tibia_foot
      {
        OFFSET -4.370144 -48.10324 -4.275266
        CHANNELS 3 Zrotation Xrotation Yrotation
        End Site
        {
          OFFSET 0 -5 15
        }
      }
    }
  }
  JOINT pelvis_spine1
  {
    OFFSET 0 6.468898 -3.129235
    CHANNELS 3 Zrotation Xrotation Yrotation
    JOINT spine1
    {
      OFFSET 0 23.15396 4.99043
      CHANNELS 3 Zrotation Xrotation Yrotation
      JOINT spine2
      {
        OFFSET 0 20.79997 -5.064912
        CHANNELS 3 Zrotation Xrotation Yrotation
        JOINT neck
        {
          OFFSET 0 14.38658 9.616178
          CHANNELS 3 Zrotation Xrotation Yrotation
          End Site
          {
            OFFSET 0 20 0
          }
        }
      }
      JOINT right_manubrium
      {
        OFFSET -5.722621 16.35077 3.967754
        CHANNELS 3 Zrotation Xrotation Yrotation
        JOINT right_clavicle
        {
          OFFSET -13.16364 1.694482 -4.693211
          CHANNELS 3 Zrotation Xrotation Yrotation
          JOINT right_humerus
          {
            OFFSET -28.5034 -0.3100689 -2.792744
            CHANNELS 3 Zrotation Xrotation Yrotation
            JOINT right_radius
            {
              OFFSET -25.15693 0.02248979 -1.271978
              CHANNELS 3 Zrotation Xrotation Yrotation
              End Site
              {
                OFFSET -15 0 0
              }
            }
          }
        }
      }
      JOINT left_manubrium
      {
        OFFSET 5.722621 16.35077 3.967754
        CHANNELS 3 Zrotation Xrotation Yrotation
        JOINT left_clavicle
        {
          OFFSET 13.16364 1.694482 -4.693211
          CHANNELS 3 Zrotation Xrotation Yrotation
          JOINT left_humerus
          {
            OFFSET 29.39168 -1.063119 -2.237045
            CHANNELS 3 Zrotation Xrotation Yrotation
            JOINT left_radius
            {
              OFFSET 24.59957 -0.9528479 0.9047498
              CHANNELS 3 Zrotation Xrotation Yrotation
              End Site
              {
                OFFSET 15 -0 -0
              }
            }
          }
        }
      }
    }
  }
}
MOTION
Frames: 7
Frame Time: 0.0416666666667
0 103.5113 0 2.18007 -1.218924 0.2901017 1.254529 -10.03903 8.766582 -0 34.86542 -0 -5.283237 -18.00204 -2.440084 -8.035743 10.10631 -23.51758 -0 5.121002 -0 7.697733 -16.13508 26.59902 -4.332044 -5.060458 4.933307 2.001187 9.215424 -7.754208 0.8283577 22.82491 7.184003 3.255829 -23.09059 8.808408 6.375604 -19.7727 11.57719 86.31139 35.94501 -19.77748 -0 0 16.27402 -7.574358 8.237764 4.623284 5.472417 -19.48333 -1.698531 -94.79098 29.75183 22.96892 0 0 -15.93881 3.493493 17.88404 9.567301
0.3226607 103.5091 1.339464 2.01925 -1.13331 0.4914977 1.551488 -10.99872 8.692417 -0 34.95689 -0 -5.363608 -17.6633 -2.547543 -7.88066 10.26725 -23.41037 -0 5.141386 -0 7.581421 -16.38397 26.45532 -4.256768 -4.876475 4.844829 2.079193 9.18939 -7.797573 0.8294505 22.73905 7.230041 3.291786 -23.20867 8.838409 6.371784 -19.74027 11.58274 86.28958 35.92217 -19.80615 -0 0 16.19166 -7.605815 8.261013 4.649932 5.508714 -19.50901 -1.72565 -94.7147 29.71556 22.87676 0 0 -16.16205 3.540363 17.75528 9.546033
0.6526849 103.4579 2.769558 1.795376 -0.9439765 0.5947914 1.929561 -12.505 8.444512 -0 33.73173 -0 -5.460047 -16.98629 -2.393302 -7.673445 10.46702 -23.191 -0 5.213035 -0 7.370706 -16.80417 26.18418 -4.190387 -4.584013 4.776542 2.256378 9.151768 -7.837093 0.8333956 22.55105 7.301847 3.360858 -23.40674 8.869841 6.363482 -19.65808 11.60581 86.2506 35.89156 -19.88775 -0 0 15.99365 -7.645719 8.300466 4.66884 5.635236 -19.52092 -1.796823 -94.59135 29.64929 22.61461 0 0 -16.68009 3.634452 17.56768 9.46213
1.009333 103.2895 4.357917 1.56063 -0.6062251 0.580295 2.280205 -14.44155 7.979054 -0 30.51408 -0 -5.540007 -15.82243 -1.848662 -7.499447 10.68332 -22.82318 -0 5.403567 -0 7.058649 -17.41942 25.75263 -4.172957 -4.197502 4.781954 2.514787 9.103397 -7.82454 0.8786203 22.23254 7.372041 3.476298 -23.68925 8.903429 6.322163 -19.48551 11.64948 86.22001 35.85084 -20.05228 -0 0 15.65335 -7.693217 8.358651 4.675457 5.8805 -19.56661 -1.894776 -94.3707 29.56194 22.09025 0 0 -17.57042 3.773921 17.33085 9.2816
1.411691 102.9348 6.174491 1.387722 -0.1292986 0.5140974 2.484074 -16.51378 7.345734 -0 25.41198 -0 -5.582101 -14.14841 -0.9561729 -7.44162 10.91982 -22.29722 -0 5.791565 -0 6.64542 -18.19045 25.13981 -4.215736 -3.795745 4.875675 2.780122 9.047434 -7.724476 0.993264 21.84178 7.414643 3.635083 -24.02002 8.951225 6.21069 -19.21361 11.68084 86.24184 35.79643 -20.30336 -0 0 15.19695 -7.749165 8.43681 4.680081 6.226646 -19.70083 -1.968171 -94.01122 29.46864 21.31294 0 0 -18.7471 3.926485 17.05338 9.020792
1.866131 102.3664 8.271543 1.32179 0.4513496 0.4890865 2.496847 -18.42979 6.592613 -0 18.92589 -0 -5.588477 -12.14484 0.1780731 -7.508909 11.20384 -21.60698 -0 6.441526 -0 6.098594 -19.02368 24.30406 -4.296048 -3.479104 5.007447 2.986282 8.988195 -7.570458 1.133361 21.49355 7.44511 3.809424 -24.33427 9.008205 6.020573 -18.88201 11.64066 86.35972 35.73197 -20.62108 -0 0 14.65492 -7.805766 8.539379 4.692236 6.636366 -19.90297 -1.987307 -93.53195 29.36635 20.39257 0 0 -20.02188 4.059359 16.73967 8.749562
2.353829 101.625 10.71522 1.340578 1.122099 0.572146 2.429137 -19.96807 5.735426 -0 11.86872 -0 -5.580363 -10.19078 1.373085 -7.663213 11.56498 -20.74107 -0 7.443766 -0 5.360661 -19.79357 23.1997 -4.360072 -3.281481 5.080004 3.100686 8.921282 -7.457632 1.21958 21.24648 7.491682 3.960788 -24.57721 9.037212 5.78848 -18.51295 11.51336 86.62221 35.664 -21.00023 -0 0 14.02301 -7.8491 8.674688 4.711072 7.04316 -20.14958 -1.982069 -92.97042 29.25181 19.43884 0 0 -21.19575 4.156404 16.39945 8.54561
